<mxfile host="app.diagrams.net" agent="Mozilla/5.0 (Windows NT 10.0; Win64; x64) AppleWebKit/537.36 (KHTML, like Gecko) Chrome/131.0.0.0 Safari/537.36" version="26.0.5">
  <diagram name="Page-1" id="VCVyqlpqYdft-eGJF7uD">
    <mxGraphModel dx="1050" dy="522" grid="1" gridSize="10" guides="1" tooltips="1" connect="1" arrows="1" fold="1" page="1" pageScale="1" pageWidth="827" pageHeight="1169" math="0" shadow="0">
      <root>
        <mxCell id="0" />
        <mxCell id="1" parent="0" />
        <mxCell id="SDP90H89KRwcFPpMvYyM-2" value="&lt;font style=&quot;font-size: 30px;&quot;&gt;0&lt;/font&gt;" style="shape=ellipse;html=1;dashed=0;whiteSpace=wrap;aspect=fixed;perimeter=ellipsePerimeter;fillColor=#fff2cc;strokeColor=#000000;" parent="1" vertex="1">
          <mxGeometry x="124" y="290" width="280" height="280" as="geometry" />
        </mxCell>
        <mxCell id="SDP90H89KRwcFPpMvYyM-71" style="edgeStyle=orthogonalEdgeStyle;rounded=0;orthogonalLoop=1;jettySize=auto;html=1;exitX=1;exitY=0.5;exitDx=0;exitDy=0;entryX=0;entryY=0.5;entryDx=0;entryDy=0;" parent="1" source="SDP90H89KRwcFPpMvYyM-3" target="SDP90H89KRwcFPpMvYyM-24" edge="1">
          <mxGeometry relative="1" as="geometry" />
        </mxCell>
        <mxCell id="SDP90H89KRwcFPpMvYyM-3" value="&lt;font style=&quot;font-size: 17px;&quot;&gt;1&lt;/font&gt;" style="shape=ellipse;html=1;dashed=0;whiteSpace=wrap;aspect=fixed;perimeter=ellipsePerimeter;fillColor=#fff2cc;strokeColor=#000000;" parent="1" vertex="1">
          <mxGeometry x="398" y="130" width="60" height="60" as="geometry" />
        </mxCell>
        <mxCell id="SDP90H89KRwcFPpMvYyM-11" value="" style="shape=ellipse;html=1;dashed=0;whiteSpace=wrap;aspect=fixed;perimeter=ellipsePerimeter;" parent="1" vertex="1">
          <mxGeometry x="474" y="660" width="60" height="60" as="geometry" />
        </mxCell>
        <mxCell id="SDP90H89KRwcFPpMvYyM-72" style="edgeStyle=orthogonalEdgeStyle;rounded=0;orthogonalLoop=1;jettySize=auto;html=1;exitX=1;exitY=0.5;exitDx=0;exitDy=0;entryX=0;entryY=0.5;entryDx=0;entryDy=0;" parent="1" source="SDP90H89KRwcFPpMvYyM-13" target="SDP90H89KRwcFPpMvYyM-25" edge="1">
          <mxGeometry relative="1" as="geometry" />
        </mxCell>
        <mxCell id="SDP90H89KRwcFPpMvYyM-13" value="&lt;font style=&quot;font-size: 17px;&quot;&gt;2&lt;/font&gt;" style="shape=ellipse;html=1;dashed=0;whiteSpace=wrap;aspect=fixed;perimeter=ellipsePerimeter;fillColor=#fff2cc;strokeColor=#000000;gradientColor=none;" parent="1" vertex="1">
          <mxGeometry x="444" y="200" width="60" height="60" as="geometry" />
        </mxCell>
        <mxCell id="SDP90H89KRwcFPpMvYyM-14" value="&lt;font style=&quot;font-size: 17px;&quot;&gt;3&lt;/font&gt;" style="shape=ellipse;html=1;dashed=0;whiteSpace=wrap;aspect=fixed;perimeter=ellipsePerimeter;fillColor=#fff2cc;strokeColor=#000000;" parent="1" vertex="1">
          <mxGeometry x="514" y="290" width="60" height="60" as="geometry" />
        </mxCell>
        <mxCell id="SDP90H89KRwcFPpMvYyM-15" value="&lt;font style=&quot;font-size: 17px;&quot;&gt;4&lt;/font&gt;" style="shape=ellipse;html=1;dashed=0;whiteSpace=wrap;aspect=fixed;perimeter=ellipsePerimeter;strokeColor=#000000;align=center;verticalAlign=middle;fontFamily=Helvetica;fontSize=12;fontColor=default;fillColor=#fff2cc;" parent="1" vertex="1">
          <mxGeometry x="484" y="350" width="60" height="60" as="geometry" />
        </mxCell>
        <mxCell id="SDP90H89KRwcFPpMvYyM-16" value="&lt;font style=&quot;font-size: 17px;&quot;&gt;5&lt;/font&gt;" style="shape=ellipse;html=1;dashed=0;whiteSpace=wrap;aspect=fixed;perimeter=ellipsePerimeter;strokeColor=#000000;align=center;verticalAlign=middle;fontFamily=Helvetica;fontSize=12;fontColor=default;fillColor=#fff2cc;" parent="1" vertex="1">
          <mxGeometry x="484" y="430" width="60" height="60" as="geometry" />
        </mxCell>
        <mxCell id="SDP90H89KRwcFPpMvYyM-17" value="&lt;font style=&quot;font-size: 17px;&quot;&gt;6&lt;/font&gt;" style="shape=ellipse;html=1;dashed=0;whiteSpace=wrap;aspect=fixed;perimeter=ellipsePerimeter;strokeColor=#000000;align=center;verticalAlign=middle;fontFamily=Helvetica;fontSize=12;fontColor=default;fillColor=#fff2cc;" parent="1" vertex="1">
          <mxGeometry x="474" y="510" width="60" height="60" as="geometry" />
        </mxCell>
        <mxCell id="SDP90H89KRwcFPpMvYyM-18" value="" style="shape=ellipse;html=1;dashed=0;whiteSpace=wrap;aspect=fixed;perimeter=ellipsePerimeter;" parent="1" vertex="1">
          <mxGeometry x="254" y="765" width="60" height="60" as="geometry" />
        </mxCell>
        <mxCell id="SDP90H89KRwcFPpMvYyM-19" value="" style="shape=ellipse;html=1;dashed=0;whiteSpace=wrap;aspect=fixed;perimeter=ellipsePerimeter;" parent="1" vertex="1">
          <mxGeometry x="344" y="750" width="60" height="60" as="geometry" />
        </mxCell>
        <mxCell id="SDP90H89KRwcFPpMvYyM-20" value="" style="shape=ellipse;html=1;dashed=0;whiteSpace=wrap;aspect=fixed;perimeter=ellipsePerimeter;" parent="1" vertex="1">
          <mxGeometry x="414" y="720" width="60" height="60" as="geometry" />
        </mxCell>
        <mxCell id="SDP90H89KRwcFPpMvYyM-21" value="" style="shape=ellipse;html=1;dashed=0;whiteSpace=wrap;aspect=fixed;perimeter=ellipsePerimeter;" parent="1" vertex="1">
          <mxGeometry x="94" y="750" width="60" height="60" as="geometry" />
        </mxCell>
        <mxCell id="SDP90H89KRwcFPpMvYyM-22" value="" style="shape=ellipse;html=1;dashed=0;whiteSpace=wrap;aspect=fixed;perimeter=ellipsePerimeter;" parent="1" vertex="1">
          <mxGeometry x="174" y="765" width="60" height="60" as="geometry" />
        </mxCell>
        <mxCell id="SDP90H89KRwcFPpMvYyM-24" value="" style="shape=ellipse;html=1;dashed=0;whiteSpace=wrap;aspect=fixed;perimeter=ellipsePerimeter;" parent="1" vertex="1">
          <mxGeometry x="554" y="130" width="60" height="60" as="geometry" />
        </mxCell>
        <mxCell id="SDP90H89KRwcFPpMvYyM-25" value="" style="shape=ellipse;html=1;dashed=0;whiteSpace=wrap;aspect=fixed;perimeter=ellipsePerimeter;" parent="1" vertex="1">
          <mxGeometry x="574" y="200" width="60" height="60" as="geometry" />
        </mxCell>
        <mxCell id="SDP90H89KRwcFPpMvYyM-26" value="" style="shape=ellipse;html=1;dashed=0;whiteSpace=wrap;aspect=fixed;perimeter=ellipsePerimeter;" parent="1" vertex="1">
          <mxGeometry x="624" y="260" width="60" height="60" as="geometry" />
        </mxCell>
        <mxCell id="SDP90H89KRwcFPpMvYyM-27" value="" style="shape=ellipse;html=1;dashed=0;whiteSpace=wrap;aspect=fixed;perimeter=ellipsePerimeter;" parent="1" vertex="1">
          <mxGeometry x="694" y="310" width="60" height="60" as="geometry" />
        </mxCell>
        <mxCell id="SDP90H89KRwcFPpMvYyM-28" value="" style="shape=ellipse;html=1;dashed=0;whiteSpace=wrap;aspect=fixed;perimeter=ellipsePerimeter;" parent="1" vertex="1">
          <mxGeometry x="614" y="420" width="60" height="60" as="geometry" />
        </mxCell>
        <mxCell id="SDP90H89KRwcFPpMvYyM-36" value="&lt;span style=&quot;font-size: 17px;&quot;&gt;12&lt;/span&gt;" style="shape=ellipse;html=1;dashed=0;whiteSpace=wrap;aspect=fixed;perimeter=ellipsePerimeter;fillColor=#fff2cc;strokeColor=#000000;align=center;verticalAlign=middle;fontFamily=Helvetica;fontSize=12;fontColor=default;" parent="1" vertex="1">
          <mxGeometry x="704" y="320" width="40" height="40" as="geometry" />
        </mxCell>
        <mxCell id="SDP90H89KRwcFPpMvYyM-37" value="&lt;span style=&quot;font-size: 17px;&quot;&gt;11&lt;/span&gt;" style="shape=ellipse;html=1;dashed=0;whiteSpace=wrap;aspect=fixed;perimeter=ellipsePerimeter;fillColor=#fff2cc;strokeColor=#000000;align=center;verticalAlign=middle;fontFamily=Helvetica;fontSize=12;fontColor=default;" parent="1" vertex="1">
          <mxGeometry x="634" y="270" width="40" height="40" as="geometry" />
        </mxCell>
        <mxCell id="SDP90H89KRwcFPpMvYyM-38" value="&lt;span style=&quot;font-size: 17px;&quot;&gt;10&lt;/span&gt;" style="shape=ellipse;html=1;dashed=0;whiteSpace=wrap;aspect=fixed;perimeter=ellipsePerimeter;fillColor=#fff2cc;strokeColor=#000000;" parent="1" vertex="1">
          <mxGeometry x="584" y="210" width="40" height="40" as="geometry" />
        </mxCell>
        <mxCell id="SDP90H89KRwcFPpMvYyM-39" value="&lt;span style=&quot;font-size: 17px;&quot;&gt;9&lt;/span&gt;" style="shape=ellipse;html=1;dashed=0;whiteSpace=wrap;aspect=fixed;perimeter=ellipsePerimeter;fillColor=#fff2cc;strokeColor=#000000;" parent="1" vertex="1">
          <mxGeometry x="564" y="140" width="40" height="40" as="geometry" />
        </mxCell>
        <mxCell id="SDP90H89KRwcFPpMvYyM-46" value="" style="shape=ellipse;html=1;dashed=0;whiteSpace=wrap;aspect=fixed;perimeter=ellipsePerimeter;" parent="1" vertex="1">
          <mxGeometry x="594" y="490" width="60" height="60" as="geometry" />
        </mxCell>
        <mxCell id="SDP90H89KRwcFPpMvYyM-48" value="&lt;span style=&quot;font-size: 17px;&quot;&gt;7&lt;/span&gt;" style="shape=ellipse;html=1;dashed=0;whiteSpace=wrap;aspect=fixed;perimeter=ellipsePerimeter;strokeColor=#000000;align=center;verticalAlign=middle;fontFamily=Helvetica;fontSize=12;fontColor=default;fillColor=#fff2cc;" parent="1" vertex="1">
          <mxGeometry x="584" y="560" width="60" height="60" as="geometry" />
        </mxCell>
        <mxCell id="SDP90H89KRwcFPpMvYyM-50" value="&lt;span style=&quot;font-size: 17px;&quot;&gt;8&lt;/span&gt;" style="shape=ellipse;html=1;dashed=0;whiteSpace=wrap;aspect=fixed;perimeter=ellipsePerimeter;strokeColor=#000000;align=center;verticalAlign=middle;fontFamily=Helvetica;fontSize=12;fontColor=default;fillColor=#fff2cc;" parent="1" vertex="1">
          <mxGeometry x="654" y="645" width="60" height="60" as="geometry" />
        </mxCell>
        <mxCell id="SDP90H89KRwcFPpMvYyM-52" value="" style="shape=ellipse;html=1;dashed=0;whiteSpace=wrap;aspect=fixed;perimeter=ellipsePerimeter;" parent="1" vertex="1">
          <mxGeometry x="694" y="380" width="60" height="60" as="geometry" />
        </mxCell>
        <mxCell id="SDP90H89KRwcFPpMvYyM-54" value="&lt;span style=&quot;font-size: 17px;&quot;&gt;13&lt;/span&gt;" style="shape=ellipse;html=1;dashed=0;whiteSpace=wrap;aspect=fixed;perimeter=ellipsePerimeter;fillColor=#fff2cc;strokeColor=#000000;align=center;verticalAlign=middle;fontFamily=Helvetica;fontSize=12;fontColor=default;" parent="1" vertex="1">
          <mxGeometry x="704" y="390" width="40" height="40" as="geometry" />
        </mxCell>
        <mxCell id="SDP90H89KRwcFPpMvYyM-55" value="&lt;span style=&quot;font-size: 17px;&quot;&gt;14&lt;/span&gt;" style="shape=ellipse;html=1;dashed=0;whiteSpace=wrap;aspect=fixed;perimeter=ellipsePerimeter;fillColor=#fff2cc;strokeColor=#000000;align=center;verticalAlign=middle;fontFamily=Helvetica;fontSize=12;fontColor=default;" parent="1" vertex="1">
          <mxGeometry x="624" y="430" width="40" height="40" as="geometry" />
        </mxCell>
        <mxCell id="SDP90H89KRwcFPpMvYyM-56" value="&lt;span style=&quot;font-size: 17px;&quot;&gt;15&lt;/span&gt;" style="shape=ellipse;html=1;dashed=0;whiteSpace=wrap;aspect=fixed;perimeter=ellipsePerimeter;fillColor=#fff2cc;strokeColor=#000000;align=center;verticalAlign=middle;fontFamily=Helvetica;fontSize=12;fontColor=default;" parent="1" vertex="1">
          <mxGeometry x="604" y="500" width="40" height="40" as="geometry" />
        </mxCell>
        <mxCell id="SDP90H89KRwcFPpMvYyM-60" value="" style="shape=ellipse;html=1;dashed=0;whiteSpace=wrap;aspect=fixed;perimeter=ellipsePerimeter;" parent="1" vertex="1">
          <mxGeometry x="54" y="690" width="60" height="60" as="geometry" />
        </mxCell>
        <mxCell id="SDP90H89KRwcFPpMvYyM-61" value="&lt;span style=&quot;font-size: 17px;&quot;&gt;16&lt;/span&gt;" style="shape=ellipse;html=1;dashed=0;whiteSpace=wrap;aspect=fixed;perimeter=ellipsePerimeter;fillColor=#fff2cc;strokeColor=#000000;align=center;verticalAlign=middle;fontFamily=Helvetica;fontSize=12;fontColor=default;" parent="1" vertex="1">
          <mxGeometry x="484" y="670" width="40" height="40" as="geometry" />
        </mxCell>
        <mxCell id="SDP90H89KRwcFPpMvYyM-62" value="&lt;span style=&quot;font-size: 17px;&quot;&gt;17&lt;/span&gt;" style="shape=ellipse;html=1;dashed=0;whiteSpace=wrap;aspect=fixed;perimeter=ellipsePerimeter;fillColor=#fff2cc;strokeColor=#000000;align=center;verticalAlign=middle;fontFamily=Helvetica;fontSize=12;fontColor=default;" parent="1" vertex="1">
          <mxGeometry x="424" y="730" width="40" height="40" as="geometry" />
        </mxCell>
        <mxCell id="SDP90H89KRwcFPpMvYyM-63" value="&lt;span style=&quot;font-size: 17px;&quot;&gt;18&lt;/span&gt;" style="shape=ellipse;html=1;dashed=0;whiteSpace=wrap;aspect=fixed;perimeter=ellipsePerimeter;fillColor=#fff2cc;strokeColor=#000000;align=center;verticalAlign=middle;fontFamily=Helvetica;fontSize=12;fontColor=default;" parent="1" vertex="1">
          <mxGeometry x="354" y="760" width="40" height="40" as="geometry" />
        </mxCell>
        <mxCell id="SDP90H89KRwcFPpMvYyM-64" value="&lt;span style=&quot;font-size: 17px;&quot;&gt;19&lt;/span&gt;" style="shape=ellipse;html=1;dashed=0;whiteSpace=wrap;aspect=fixed;perimeter=ellipsePerimeter;fillColor=#fff2cc;strokeColor=#000000;align=center;verticalAlign=middle;fontFamily=Helvetica;fontSize=12;fontColor=default;" parent="1" vertex="1">
          <mxGeometry x="264" y="775" width="40" height="40" as="geometry" />
        </mxCell>
        <mxCell id="SDP90H89KRwcFPpMvYyM-65" value="&lt;span style=&quot;font-size: 17px;&quot;&gt;20&lt;/span&gt;" style="shape=ellipse;html=1;dashed=0;whiteSpace=wrap;aspect=fixed;perimeter=ellipsePerimeter;fillColor=#fff2cc;strokeColor=#000000;align=center;verticalAlign=middle;fontFamily=Helvetica;fontSize=12;fontColor=default;" parent="1" vertex="1">
          <mxGeometry x="184" y="775" width="40" height="40" as="geometry" />
        </mxCell>
        <mxCell id="SDP90H89KRwcFPpMvYyM-66" value="&lt;span style=&quot;font-size: 17px;&quot;&gt;21&lt;/span&gt;" style="shape=ellipse;html=1;dashed=0;whiteSpace=wrap;aspect=fixed;perimeter=ellipsePerimeter;fillColor=#fff2cc;strokeColor=#000000;align=center;verticalAlign=middle;fontFamily=Helvetica;fontSize=12;fontColor=default;" parent="1" vertex="1">
          <mxGeometry x="104" y="760" width="40" height="40" as="geometry" />
        </mxCell>
        <mxCell id="SDP90H89KRwcFPpMvYyM-67" value="&lt;span style=&quot;font-size: 17px;&quot;&gt;22&lt;/span&gt;" style="shape=ellipse;html=1;dashed=0;whiteSpace=wrap;aspect=fixed;perimeter=ellipsePerimeter;fillColor=#fff2cc;strokeColor=#000000;align=center;verticalAlign=middle;fontFamily=Helvetica;fontSize=12;fontColor=default;" parent="1" vertex="1">
          <mxGeometry x="64" y="700" width="40" height="40" as="geometry" />
        </mxCell>
        <mxCell id="SDP90H89KRwcFPpMvYyM-74" value="" style="curved=1;endArrow=classic;html=1;rounded=0;entryX=0;entryY=0.5;entryDx=0;entryDy=0;exitX=1;exitY=0.5;exitDx=0;exitDy=0;" parent="1" source="SDP90H89KRwcFPpMvYyM-15" target="SDP90H89KRwcFPpMvYyM-27" edge="1">
          <mxGeometry width="50" height="50" relative="1" as="geometry">
            <mxPoint x="574" y="400" as="sourcePoint" />
            <mxPoint x="624" y="350" as="targetPoint" />
            <Array as="points">
              <mxPoint x="574" y="350" />
            </Array>
          </mxGeometry>
        </mxCell>
        <mxCell id="SDP90H89KRwcFPpMvYyM-75" value="" style="curved=1;endArrow=classic;html=1;rounded=0;exitX=1;exitY=0.5;exitDx=0;exitDy=0;entryX=0;entryY=0.333;entryDx=0;entryDy=0;entryPerimeter=0;" parent="1" source="SDP90H89KRwcFPpMvYyM-15" target="SDP90H89KRwcFPpMvYyM-52" edge="1">
          <mxGeometry width="50" height="50" relative="1" as="geometry">
            <mxPoint x="584" y="420" as="sourcePoint" />
            <mxPoint x="634" y="370" as="targetPoint" />
            <Array as="points">
              <mxPoint x="634" y="410" />
            </Array>
          </mxGeometry>
        </mxCell>
        <mxCell id="SDP90H89KRwcFPpMvYyM-76" value="" style="curved=1;endArrow=classic;html=1;rounded=0;entryX=0;entryY=0;entryDx=0;entryDy=0;exitX=1;exitY=0;exitDx=0;exitDy=0;" parent="1" source="SDP90H89KRwcFPpMvYyM-16" target="SDP90H89KRwcFPpMvYyM-28" edge="1">
          <mxGeometry width="50" height="50" relative="1" as="geometry">
            <mxPoint x="539" y="440" as="sourcePoint" />
            <mxPoint x="689" y="400" as="targetPoint" />
            <Array as="points">
              <mxPoint x="569" y="410" />
            </Array>
          </mxGeometry>
        </mxCell>
        <mxCell id="SDP90H89KRwcFPpMvYyM-77" value="" style="curved=1;endArrow=classic;html=1;rounded=0;exitX=1;exitY=0.5;exitDx=0;exitDy=0;entryX=0;entryY=0;entryDx=0;entryDy=0;" parent="1" source="SDP90H89KRwcFPpMvYyM-16" target="SDP90H89KRwcFPpMvYyM-46" edge="1">
          <mxGeometry width="50" height="50" relative="1" as="geometry">
            <mxPoint x="549" y="480" as="sourcePoint" />
            <mxPoint x="699" y="500" as="targetPoint" />
            <Array as="points">
              <mxPoint x="594" y="470" />
            </Array>
          </mxGeometry>
        </mxCell>
        <mxCell id="SDP90H89KRwcFPpMvYyM-78" value="" style="curved=1;endArrow=classic;html=1;rounded=0;exitX=0.5;exitY=0;exitDx=0;exitDy=0;entryX=0;entryY=0.5;entryDx=0;entryDy=0;" parent="1" source="SDP90H89KRwcFPpMvYyM-2" target="SDP90H89KRwcFPpMvYyM-3" edge="1">
          <mxGeometry width="50" height="50" relative="1" as="geometry">
            <mxPoint x="294" y="255" as="sourcePoint" />
            <mxPoint x="344" y="205" as="targetPoint" />
            <Array as="points">
              <mxPoint x="304" y="210" />
            </Array>
          </mxGeometry>
        </mxCell>
        <mxCell id="SDP90H89KRwcFPpMvYyM-79" value="" style="curved=1;endArrow=classic;html=1;rounded=0;exitX=0.721;exitY=0.046;exitDx=0;exitDy=0;entryX=0;entryY=0.5;entryDx=0;entryDy=0;exitPerimeter=0;" parent="1" source="SDP90H89KRwcFPpMvYyM-2" target="SDP90H89KRwcFPpMvYyM-13" edge="1">
          <mxGeometry width="50" height="50" relative="1" as="geometry">
            <mxPoint x="340" y="330" as="sourcePoint" />
            <mxPoint x="474" y="200" as="targetPoint" />
            <Array as="points">
              <mxPoint x="364" y="240" />
            </Array>
          </mxGeometry>
        </mxCell>
        <mxCell id="SDP90H89KRwcFPpMvYyM-80" value="" style="curved=1;endArrow=classic;html=1;rounded=0;exitX=0.899;exitY=0.194;exitDx=0;exitDy=0;entryX=0;entryY=0.5;entryDx=0;entryDy=0;exitPerimeter=0;" parent="1" source="SDP90H89KRwcFPpMvYyM-2" target="SDP90H89KRwcFPpMvYyM-14" edge="1">
          <mxGeometry width="50" height="50" relative="1" as="geometry">
            <mxPoint x="374" y="343" as="sourcePoint" />
            <mxPoint x="492" y="270" as="targetPoint" />
            <Array as="points">
              <mxPoint x="414" y="300" />
            </Array>
          </mxGeometry>
        </mxCell>
        <mxCell id="SDP90H89KRwcFPpMvYyM-81" value="" style="curved=1;endArrow=classic;html=1;rounded=0;exitX=0.993;exitY=0.414;exitDx=0;exitDy=0;entryX=0;entryY=0.5;entryDx=0;entryDy=0;exitPerimeter=0;" parent="1" source="SDP90H89KRwcFPpMvYyM-2" target="SDP90H89KRwcFPpMvYyM-15" edge="1">
          <mxGeometry width="50" height="50" relative="1" as="geometry">
            <mxPoint x="404" y="402" as="sourcePoint" />
            <mxPoint x="502" y="358" as="targetPoint" />
            <Array as="points">
              <mxPoint x="442" y="380" />
            </Array>
          </mxGeometry>
        </mxCell>
        <mxCell id="SDP90H89KRwcFPpMvYyM-82" value="" style="curved=1;endArrow=classic;html=1;rounded=0;exitX=0.981;exitY=0.591;exitDx=0;exitDy=0;entryX=0;entryY=0.5;entryDx=0;entryDy=0;exitPerimeter=0;" parent="1" source="SDP90H89KRwcFPpMvYyM-2" target="SDP90H89KRwcFPpMvYyM-16" edge="1">
          <mxGeometry width="50" height="50" relative="1" as="geometry">
            <mxPoint x="404" y="456" as="sourcePoint" />
            <mxPoint x="486" y="430" as="targetPoint" />
            <Array as="points" />
          </mxGeometry>
        </mxCell>
        <mxCell id="SDP90H89KRwcFPpMvYyM-83" value="" style="curved=1;endArrow=classic;html=1;rounded=0;exitX=0.936;exitY=0.766;exitDx=0;exitDy=0;entryX=0;entryY=0.5;entryDx=0;entryDy=0;exitPerimeter=0;" parent="1" source="SDP90H89KRwcFPpMvYyM-2" target="SDP90H89KRwcFPpMvYyM-17" edge="1">
          <mxGeometry width="50" height="50" relative="1" as="geometry">
            <mxPoint x="398" y="505" as="sourcePoint" />
            <mxPoint x="483" y="510" as="targetPoint" />
            <Array as="points" />
          </mxGeometry>
        </mxCell>
        <mxCell id="SDP90H89KRwcFPpMvYyM-84" value="" style="curved=1;endArrow=classic;html=1;rounded=0;exitX=1;exitY=1;exitDx=0;exitDy=0;entryX=0;entryY=0;entryDx=0;entryDy=0;" parent="1" source="SDP90H89KRwcFPpMvYyM-17" target="SDP90H89KRwcFPpMvYyM-48" edge="1">
          <mxGeometry width="50" height="50" relative="1" as="geometry">
            <mxPoint x="536" y="540" as="sourcePoint" />
            <mxPoint x="624" y="576" as="targetPoint" />
            <Array as="points">
              <mxPoint x="564" y="550" />
            </Array>
          </mxGeometry>
        </mxCell>
        <mxCell id="SDP90H89KRwcFPpMvYyM-85" value="" style="curved=1;endArrow=classic;html=1;rounded=0;exitX=1;exitY=0.5;exitDx=0;exitDy=0;entryX=0.5;entryY=0;entryDx=0;entryDy=0;" parent="1" source="SDP90H89KRwcFPpMvYyM-48" target="SDP90H89KRwcFPpMvYyM-50" edge="1">
          <mxGeometry width="50" height="50" relative="1" as="geometry">
            <mxPoint x="664" y="621" as="sourcePoint" />
            <mxPoint x="732" y="629" as="targetPoint" />
            <Array as="points">
              <mxPoint x="703" y="610" />
            </Array>
          </mxGeometry>
        </mxCell>
        <mxCell id="SDP90H89KRwcFPpMvYyM-87" value="" style="curved=1;endArrow=classic;html=1;rounded=0;entryX=1;entryY=1;entryDx=0;entryDy=0;exitX=0;exitY=0.5;exitDx=0;exitDy=0;" parent="1" source="SDP90H89KRwcFPpMvYyM-50" target="SDP90H89KRwcFPpMvYyM-2" edge="1">
          <mxGeometry width="50" height="50" relative="1" as="geometry">
            <mxPoint x="494" y="650" as="sourcePoint" />
            <mxPoint x="544" y="600" as="targetPoint" />
            <Array as="points">
              <mxPoint x="514" y="630" />
              <mxPoint x="484" y="610" />
            </Array>
          </mxGeometry>
        </mxCell>
        <mxCell id="SDP90H89KRwcFPpMvYyM-88" value="" style="curved=1;endArrow=classic;html=1;rounded=0;exitX=0.764;exitY=0.931;exitDx=0;exitDy=0;entryX=0;entryY=0;entryDx=0;entryDy=0;exitPerimeter=0;" parent="1" source="SDP90H89KRwcFPpMvYyM-2" target="SDP90H89KRwcFPpMvYyM-11" edge="1">
          <mxGeometry width="50" height="50" relative="1" as="geometry">
            <mxPoint x="330" y="570" as="sourcePoint" />
            <mxPoint x="418" y="606" as="targetPoint" />
            <Array as="points">
              <mxPoint x="394" y="620" />
            </Array>
          </mxGeometry>
        </mxCell>
        <mxCell id="SDP90H89KRwcFPpMvYyM-89" value="" style="curved=1;endArrow=classic;html=1;rounded=0;exitX=0.67;exitY=0.98;exitDx=0;exitDy=0;entryX=0;entryY=0;entryDx=0;entryDy=0;exitPerimeter=0;" parent="1" source="SDP90H89KRwcFPpMvYyM-2" target="SDP90H89KRwcFPpMvYyM-20" edge="1">
          <mxGeometry width="50" height="50" relative="1" as="geometry">
            <mxPoint x="348" y="561" as="sourcePoint" />
            <mxPoint x="493" y="679" as="targetPoint" />
            <Array as="points">
              <mxPoint x="384" y="640" />
            </Array>
          </mxGeometry>
        </mxCell>
        <mxCell id="SDP90H89KRwcFPpMvYyM-90" value="" style="curved=1;endArrow=classic;html=1;rounded=0;exitX=0.57;exitY=1.003;exitDx=0;exitDy=0;entryX=0.5;entryY=0;entryDx=0;entryDy=0;exitPerimeter=0;" parent="1" source="SDP90H89KRwcFPpMvYyM-2" target="SDP90H89KRwcFPpMvYyM-19" edge="1">
          <mxGeometry width="50" height="50" relative="1" as="geometry">
            <mxPoint x="264" y="575" as="sourcePoint" />
            <mxPoint x="375" y="740" as="targetPoint" />
            <Array as="points">
              <mxPoint x="336" y="651" />
            </Array>
          </mxGeometry>
        </mxCell>
        <mxCell id="SDP90H89KRwcFPpMvYyM-91" value="" style="curved=1;endArrow=classic;html=1;rounded=0;exitX=0.43;exitY=0.997;exitDx=0;exitDy=0;entryX=0.5;entryY=0;entryDx=0;entryDy=0;exitPerimeter=0;" parent="1" source="SDP90H89KRwcFPpMvYyM-2" target="SDP90H89KRwcFPpMvYyM-18" edge="1">
          <mxGeometry width="50" height="50" relative="1" as="geometry">
            <mxPoint x="234" y="581" as="sourcePoint" />
            <mxPoint x="324" y="760" as="targetPoint" />
            <Array as="points">
              <mxPoint x="286" y="661" />
            </Array>
          </mxGeometry>
        </mxCell>
        <mxCell id="SDP90H89KRwcFPpMvYyM-92" value="" style="curved=1;endArrow=classic;html=1;rounded=0;exitX=0.293;exitY=0.957;exitDx=0;exitDy=0;entryX=0.5;entryY=0;entryDx=0;entryDy=0;exitPerimeter=0;" parent="1" source="SDP90H89KRwcFPpMvYyM-2" target="SDP90H89KRwcFPpMvYyM-22" edge="1">
          <mxGeometry width="50" height="50" relative="1" as="geometry">
            <mxPoint x="182" y="564" as="sourcePoint" />
            <mxPoint x="222" y="760" as="targetPoint" />
            <Array as="points">
              <mxPoint x="224" y="656" />
            </Array>
          </mxGeometry>
        </mxCell>
        <mxCell id="SDP90H89KRwcFPpMvYyM-93" value="" style="curved=1;endArrow=classic;html=1;rounded=0;exitX=0.196;exitY=0.886;exitDx=0;exitDy=0;entryX=0.5;entryY=0;entryDx=0;entryDy=0;exitPerimeter=0;" parent="1" source="SDP90H89KRwcFPpMvYyM-2" target="SDP90H89KRwcFPpMvYyM-21" edge="1">
          <mxGeometry width="50" height="50" relative="1" as="geometry">
            <mxPoint x="146" y="543" as="sourcePoint" />
            <mxPoint x="144" y="750" as="targetPoint" />
            <Array as="points">
              <mxPoint x="194" y="650" />
            </Array>
          </mxGeometry>
        </mxCell>
        <mxCell id="SDP90H89KRwcFPpMvYyM-94" value="" style="curved=1;endArrow=classic;html=1;rounded=0;exitX=0;exitY=1;exitDx=0;exitDy=0;entryX=1;entryY=0;entryDx=0;entryDy=0;" parent="1" source="SDP90H89KRwcFPpMvYyM-2" target="SDP90H89KRwcFPpMvYyM-60" edge="1">
          <mxGeometry width="50" height="50" relative="1" as="geometry">
            <mxPoint x="144" y="478" as="sourcePoint" />
            <mxPoint x="89" y="690" as="targetPoint" />
            <Array as="points">
              <mxPoint x="159" y="590" />
            </Array>
          </mxGeometry>
        </mxCell>
        <mxCell id="SDP90H89KRwcFPpMvYyM-96" value="" style="curved=1;endArrow=classic;html=1;rounded=0;exitX=0.393;exitY=0.006;exitDx=0;exitDy=0;exitPerimeter=0;entryX=0.286;entryY=0.036;entryDx=0;entryDy=0;entryPerimeter=0;" parent="1" source="SDP90H89KRwcFPpMvYyM-2" target="SDP90H89KRwcFPpMvYyM-2" edge="1">
          <mxGeometry width="50" height="50" relative="1" as="geometry">
            <mxPoint x="204" y="230" as="sourcePoint" />
            <mxPoint x="254" y="180" as="targetPoint" />
            <Array as="points">
              <mxPoint x="254" y="230" />
              <mxPoint x="264" y="140" />
              <mxPoint x="114" y="170" />
            </Array>
          </mxGeometry>
        </mxCell>
        <mxCell id="SDP90H89KRwcFPpMvYyM-97" value="" style="curved=1;endArrow=classic;html=1;rounded=0;exitX=0;exitY=0;exitDx=0;exitDy=0;entryX=0.067;entryY=0.257;entryDx=0;entryDy=0;entryPerimeter=0;" parent="1" source="SDP90H89KRwcFPpMvYyM-2" target="SDP90H89KRwcFPpMvYyM-2" edge="1">
          <mxGeometry width="50" height="50" relative="1" as="geometry">
            <mxPoint x="94" y="300" as="sourcePoint" />
            <mxPoint x="144" y="250" as="targetPoint" />
            <Array as="points">
              <mxPoint x="144" y="300" />
              <mxPoint x="94" y="250" />
              <mxPoint x="44" y="310" />
            </Array>
          </mxGeometry>
        </mxCell>
        <mxCell id="SDP90H89KRwcFPpMvYyM-98" value="" style="endArrow=classic;html=1;rounded=0;entryX=0;entryY=0.5;entryDx=0;entryDy=0;" parent="1" target="SDP90H89KRwcFPpMvYyM-2" edge="1">
          <mxGeometry width="50" height="50" relative="1" as="geometry">
            <mxPoint x="54" y="430" as="sourcePoint" />
            <mxPoint x="114" y="430" as="targetPoint" />
          </mxGeometry>
        </mxCell>
        <mxCell id="SDP90H89KRwcFPpMvYyM-99" value="&lt;font face=&quot;Lucida Console&quot; style=&quot;font-size: 22px;&quot;&gt;cr&lt;/font&gt;" style="text;html=1;align=center;verticalAlign=middle;whiteSpace=wrap;rounded=0;" parent="1" vertex="1">
          <mxGeometry x="164" y="120" width="60" height="30" as="geometry" />
        </mxCell>
        <mxCell id="SDP90H89KRwcFPpMvYyM-100" value="&lt;font face=&quot;Lucida Console&quot; style=&quot;font-size: 22px;&quot;&gt;del&lt;/font&gt;" style="text;html=1;align=center;verticalAlign=middle;whiteSpace=wrap;rounded=0;" parent="1" vertex="1">
          <mxGeometry x="64" y="230" width="60" height="30" as="geometry" />
        </mxCell>
        <mxCell id="SDP90H89KRwcFPpMvYyM-101" value="&lt;font face=&quot;Lucida Console&quot; style=&quot;font-size: 22px;&quot;&gt;l&lt;/font&gt;" style="text;html=1;align=center;verticalAlign=middle;whiteSpace=wrap;rounded=0;" parent="1" vertex="1">
          <mxGeometry x="284" y="180" width="60" height="30" as="geometry" />
        </mxCell>
        <mxCell id="SDP90H89KRwcFPpMvYyM-103" value="&lt;font face=&quot;Lucida Console&quot; style=&quot;font-size: 22px;&quot;&gt;o.c.&lt;/font&gt;" style="text;html=1;align=center;verticalAlign=middle;whiteSpace=wrap;rounded=0;" parent="1" vertex="1">
          <mxGeometry x="474" y="130" width="60" height="30" as="geometry" />
        </mxCell>
        <mxCell id="SDP90H89KRwcFPpMvYyM-104" value="" style="curved=1;endArrow=classic;html=1;rounded=0;entryX=0.5;entryY=0;entryDx=0;entryDy=0;exitX=0.1;exitY=0.333;exitDx=0;exitDy=0;exitPerimeter=0;" parent="1" source="SDP90H89KRwcFPpMvYyM-3" target="SDP90H89KRwcFPpMvYyM-3" edge="1">
          <mxGeometry width="50" height="50" relative="1" as="geometry">
            <mxPoint x="334" y="180" as="sourcePoint" />
            <mxPoint x="384" y="130" as="targetPoint" />
            <Array as="points">
              <mxPoint x="344" y="130" />
              <mxPoint x="424" y="80" />
            </Array>
          </mxGeometry>
        </mxCell>
        <mxCell id="SDP90H89KRwcFPpMvYyM-105" value="&lt;font face=&quot;Lucida Console&quot; style=&quot;font-size: 22px;&quot;&gt;l|d|_&lt;/font&gt;" style="text;html=1;align=center;verticalAlign=middle;whiteSpace=wrap;rounded=0;" parent="1" vertex="1">
          <mxGeometry x="324" y="70" width="160" height="30" as="geometry" />
        </mxCell>
        <mxCell id="SDP90H89KRwcFPpMvYyM-106" value="" style="curved=1;endArrow=classic;html=1;rounded=0;exitX=1.007;exitY=0.297;exitDx=0;exitDy=0;exitPerimeter=0;entryX=0.5;entryY=0;entryDx=0;entryDy=0;" parent="1" source="SDP90H89KRwcFPpMvYyM-13" target="SDP90H89KRwcFPpMvYyM-13" edge="1">
          <mxGeometry width="50" height="50" relative="1" as="geometry">
            <mxPoint x="504" y="220" as="sourcePoint" />
            <mxPoint x="554" y="170" as="targetPoint" />
            <Array as="points">
              <mxPoint x="574" y="200" />
              <mxPoint x="494" y="150" />
            </Array>
          </mxGeometry>
        </mxCell>
        <mxCell id="SDP90H89KRwcFPpMvYyM-107" value="&lt;font face=&quot;Lucida Console&quot;&gt;&lt;span style=&quot;font-size: 22px;&quot;&gt;d&lt;/span&gt;&lt;/font&gt;" style="text;html=1;align=center;verticalAlign=middle;whiteSpace=wrap;rounded=0;" parent="1" vertex="1">
          <mxGeometry x="484" y="170" width="60" height="30" as="geometry" />
        </mxCell>
        <mxCell id="SDP90H89KRwcFPpMvYyM-108" value="&lt;font face=&quot;Lucida Console&quot; style=&quot;font-size: 22px;&quot;&gt;o.c.&lt;/font&gt;" style="text;html=1;align=center;verticalAlign=middle;whiteSpace=wrap;rounded=0;" parent="1" vertex="1">
          <mxGeometry x="514" y="230" width="60" height="30" as="geometry" />
        </mxCell>
        <mxCell id="SDP90H89KRwcFPpMvYyM-109" value="&lt;font face=&quot;Lucida Console&quot;&gt;&lt;span style=&quot;font-size: 22px;&quot;&gt;d&lt;/span&gt;&lt;/font&gt;" style="text;html=1;align=center;verticalAlign=middle;whiteSpace=wrap;rounded=0;" parent="1" vertex="1">
          <mxGeometry x="338" y="215" width="60" height="30" as="geometry" />
        </mxCell>
        <mxCell id="SDP90H89KRwcFPpMvYyM-111" value="&lt;font style=&quot;font-size: 24px;&quot; face=&quot;Lucida Console&quot;&gt;&#39;&lt;/font&gt;" style="text;html=1;align=center;verticalAlign=middle;whiteSpace=wrap;rounded=0;" parent="1" vertex="1">
          <mxGeometry x="384" y="280" width="60" height="30" as="geometry" />
        </mxCell>
        <mxCell id="SDP90H89KRwcFPpMvYyM-112" value="" style="curved=1;endArrow=classic;html=1;rounded=0;exitX=-0.013;exitY=0.33;exitDx=0;exitDy=0;exitPerimeter=0;entryX=0.253;entryY=0.023;entryDx=0;entryDy=0;entryPerimeter=0;" parent="1" source="SDP90H89KRwcFPpMvYyM-14" target="SDP90H89KRwcFPpMvYyM-14" edge="1">
          <mxGeometry width="50" height="50" relative="1" as="geometry">
            <mxPoint x="424" y="310" as="sourcePoint" />
            <mxPoint x="544" y="290" as="targetPoint" />
            <Array as="points">
              <mxPoint x="474" y="310" />
              <mxPoint x="474" y="260" />
              <mxPoint x="524" y="260" />
            </Array>
          </mxGeometry>
        </mxCell>
        <mxCell id="SDP90H89KRwcFPpMvYyM-113" value="&lt;font face=&quot;Lucida Console&quot; style=&quot;font-size: 22px;&quot;&gt;c&lt;sub&gt;1&lt;/sub&gt;&lt;/font&gt;" style="text;html=1;align=center;verticalAlign=middle;whiteSpace=wrap;rounded=0;" parent="1" vertex="1">
          <mxGeometry x="464" y="270" width="60" height="30" as="geometry" />
        </mxCell>
        <mxCell id="SDP90H89KRwcFPpMvYyM-114" value="&lt;font style=&quot;font-size: 24px;&quot; face=&quot;Lucida Console&quot;&gt;&#39;&lt;/font&gt;" style="text;html=1;align=center;verticalAlign=middle;whiteSpace=wrap;rounded=0;" parent="1" vertex="1">
          <mxGeometry x="564" y="275" width="60" height="30" as="geometry" />
        </mxCell>
        <mxCell id="SDP90H89KRwcFPpMvYyM-115" value="" style="curved=1;endArrow=classic;html=1;rounded=0;exitX=1;exitY=1;exitDx=0;exitDy=0;entryX=1;entryY=0.75;entryDx=0;entryDy=0;" parent="1" target="SDP90H89KRwcFPpMvYyM-114" edge="1">
          <mxGeometry width="50" height="50" relative="1" as="geometry">
            <mxPoint x="574" y="311" as="sourcePoint" />
            <mxPoint x="642" y="319" as="targetPoint" />
            <Array as="points">
              <mxPoint x="613" y="300" />
            </Array>
          </mxGeometry>
        </mxCell>
        <mxCell id="SDP90H89KRwcFPpMvYyM-118" value="&lt;font face=&quot;Lucida Console&quot; style=&quot;font-size: 22px;&quot;&gt;&amp;amp;&lt;/font&gt;" style="text;html=1;align=center;verticalAlign=middle;whiteSpace=wrap;rounded=0;" parent="1" vertex="1">
          <mxGeometry x="584" y="320" width="60" height="30" as="geometry" />
        </mxCell>
        <mxCell id="SDP90H89KRwcFPpMvYyM-119" value="&lt;font face=&quot;Lucida Console&quot; style=&quot;font-size: 22px;&quot;&gt;&amp;amp;&lt;/font&gt;" style="text;html=1;align=center;verticalAlign=middle;whiteSpace=wrap;rounded=0;" parent="1" vertex="1">
          <mxGeometry x="414" y="350" width="60" height="30" as="geometry" />
        </mxCell>
        <mxCell id="SDP90H89KRwcFPpMvYyM-120" value="&lt;font face=&quot;Lucida Console&quot; style=&quot;font-size: 22px;&quot;&gt;=&lt;/font&gt;" style="text;html=1;align=center;verticalAlign=middle;whiteSpace=wrap;rounded=0;" parent="1" vertex="1">
          <mxGeometry x="604" y="365" width="60" height="30" as="geometry" />
        </mxCell>
        <mxCell id="SDP90H89KRwcFPpMvYyM-121" value="&lt;font face=&quot;Lucida Console&quot; style=&quot;font-size: 22px;&quot;&gt;=&lt;/font&gt;" style="text;html=1;align=center;verticalAlign=middle;whiteSpace=wrap;rounded=0;" parent="1" vertex="1">
          <mxGeometry x="414" y="420" width="60" height="30" as="geometry" />
        </mxCell>
        <mxCell id="SDP90H89KRwcFPpMvYyM-122" value="&lt;font face=&quot;Lucida Console&quot; style=&quot;font-size: 22px;&quot;&gt;=&lt;/font&gt;" style="text;html=1;align=center;verticalAlign=middle;whiteSpace=wrap;rounded=0;" parent="1" vertex="1">
          <mxGeometry x="554" y="420" width="60" height="30" as="geometry" />
        </mxCell>
        <mxCell id="SDP90H89KRwcFPpMvYyM-124" value="&lt;font face=&quot;Lucida Console&quot; style=&quot;font-size: 22px;&quot;&gt;o.c.&lt;/font&gt;" style="text;html=1;align=center;verticalAlign=middle;whiteSpace=wrap;rounded=0;" parent="1" vertex="1">
          <mxGeometry x="534" y="470" width="60" height="30" as="geometry" />
        </mxCell>
        <mxCell id="SDP90H89KRwcFPpMvYyM-125" value="&lt;font face=&quot;Lucida Console&quot; style=&quot;font-size: 22px;&quot;&gt;/&lt;/font&gt;" style="text;html=1;align=center;verticalAlign=middle;whiteSpace=wrap;rounded=0;" parent="1" vertex="1">
          <mxGeometry x="414" y="490" width="60" height="30" as="geometry" />
        </mxCell>
        <mxCell id="SDP90H89KRwcFPpMvYyM-126" value="&lt;font face=&quot;Lucida Console&quot; style=&quot;font-size: 22px;&quot;&gt;*&lt;/font&gt;" style="text;html=1;align=center;verticalAlign=middle;whiteSpace=wrap;rounded=0;" parent="1" vertex="1">
          <mxGeometry x="534" y="530" width="60" height="30" as="geometry" />
        </mxCell>
        <mxCell id="SDP90H89KRwcFPpMvYyM-127" value="&lt;font face=&quot;Lucida Console&quot; style=&quot;font-size: 22px;&quot;&gt;*&lt;/font&gt;" style="text;html=1;align=center;verticalAlign=middle;whiteSpace=wrap;rounded=0;" parent="1" vertex="1">
          <mxGeometry x="664" y="590" width="60" height="30" as="geometry" />
        </mxCell>
        <mxCell id="SDP90H89KRwcFPpMvYyM-128" value="" style="curved=1;endArrow=classic;html=1;rounded=0;entryX=0.667;entryY=0;entryDx=0;entryDy=0;entryPerimeter=0;exitX=1.007;exitY=0.377;exitDx=0;exitDy=0;exitPerimeter=0;" parent="1" source="SDP90H89KRwcFPpMvYyM-48" target="SDP90H89KRwcFPpMvYyM-48" edge="1">
          <mxGeometry width="50" height="50" relative="1" as="geometry">
            <mxPoint x="724" y="580" as="sourcePoint" />
            <mxPoint x="774" y="530" as="targetPoint" />
            <Array as="points">
              <mxPoint x="724" y="560" />
              <mxPoint x="684" y="520" />
            </Array>
          </mxGeometry>
        </mxCell>
        <mxCell id="SDP90H89KRwcFPpMvYyM-129" value="" style="curved=1;endArrow=classic;html=1;rounded=0;entryX=1;entryY=0;entryDx=0;entryDy=0;exitX=0.973;exitY=0.693;exitDx=0;exitDy=0;exitPerimeter=0;" parent="1" source="SDP90H89KRwcFPpMvYyM-50" target="SDP90H89KRwcFPpMvYyM-50" edge="1">
          <mxGeometry width="50" height="50" relative="1" as="geometry">
            <mxPoint x="734" y="673" as="sourcePoint" />
            <mxPoint x="714" y="650" as="targetPoint" />
            <Array as="points">
              <mxPoint x="784" y="660" />
              <mxPoint x="774" y="630" />
              <mxPoint x="744" y="620" />
            </Array>
          </mxGeometry>
        </mxCell>
        <mxCell id="SDP90H89KRwcFPpMvYyM-130" value="&lt;font face=&quot;Lucida Console&quot; style=&quot;font-size: 22px;&quot;&gt;*&lt;/font&gt;" style="text;html=1;align=center;verticalAlign=middle;whiteSpace=wrap;rounded=0;" parent="1" vertex="1">
          <mxGeometry x="724" y="640" width="60" height="30" as="geometry" />
        </mxCell>
        <mxCell id="SDP90H89KRwcFPpMvYyM-132" value="" style="curved=1;endArrow=classic;html=1;rounded=0;exitX=0;exitY=0;exitDx=0;exitDy=0;entryX=1;entryY=1;entryDx=0;entryDy=0;" parent="1" source="SDP90H89KRwcFPpMvYyM-50" target="SDP90H89KRwcFPpMvYyM-48" edge="1">
          <mxGeometry width="50" height="50" relative="1" as="geometry">
            <mxPoint x="616" y="631" as="sourcePoint" />
            <mxPoint x="684" y="639" as="targetPoint" />
            <Array as="points">
              <mxPoint x="655" y="620" />
            </Array>
          </mxGeometry>
        </mxCell>
        <mxCell id="SDP90H89KRwcFPpMvYyM-133" value="&lt;font face=&quot;Lucida Console&quot; style=&quot;font-size: 22px;&quot;&gt;c&lt;/font&gt;&lt;font face=&quot;Lucida Console&quot; style=&quot;font-size: 18.3333px;&quot;&gt;&lt;sub&gt;3&lt;/sub&gt;&lt;/font&gt;" style="text;html=1;align=center;verticalAlign=middle;whiteSpace=wrap;rounded=0;" parent="1" vertex="1">
          <mxGeometry x="614" y="620" width="60" height="30" as="geometry" />
        </mxCell>
        <mxCell id="SDP90H89KRwcFPpMvYyM-134" value="&lt;font face=&quot;Lucida Console&quot; style=&quot;font-size: 22px;&quot;&gt;c&lt;/font&gt;&lt;font face=&quot;Lucida Console&quot; style=&quot;font-size: 15.2778px;&quot;&gt;&lt;sub&gt;2&lt;/sub&gt;&lt;/font&gt;" style="text;html=1;align=center;verticalAlign=middle;whiteSpace=wrap;rounded=0;" parent="1" vertex="1">
          <mxGeometry x="674" y="505" width="60" height="30" as="geometry" />
        </mxCell>
        <mxCell id="SDP90H89KRwcFPpMvYyM-135" value="&lt;font face=&quot;Lucida Console&quot; style=&quot;font-size: 22px;&quot;&gt;/&lt;/font&gt;" style="text;html=1;align=center;verticalAlign=middle;whiteSpace=wrap;rounded=0;" parent="1" vertex="1">
          <mxGeometry x="494" y="600" width="60" height="30" as="geometry" />
        </mxCell>
        <mxCell id="SDP90H89KRwcFPpMvYyM-137" value="&lt;font face=&quot;Lucida Console&quot;&gt;&lt;span style=&quot;font-size: 22px;&quot;&gt;}&lt;/span&gt;&lt;/font&gt;" style="text;html=1;align=center;verticalAlign=middle;whiteSpace=wrap;rounded=0;" parent="1" vertex="1">
          <mxGeometry x="104" y="550" width="60" height="30" as="geometry" />
        </mxCell>
        <mxCell id="SDP90H89KRwcFPpMvYyM-138" value="&lt;font face=&quot;Lucida Console&quot;&gt;&lt;span style=&quot;font-size: 22px;&quot;&gt;{&lt;/span&gt;&lt;/font&gt;" style="text;html=1;align=center;verticalAlign=middle;whiteSpace=wrap;rounded=0;" parent="1" vertex="1">
          <mxGeometry x="124" y="645" width="60" height="30" as="geometry" />
        </mxCell>
        <mxCell id="SDP90H89KRwcFPpMvYyM-139" value="&lt;font face=&quot;Lucida Console&quot;&gt;&lt;span style=&quot;font-size: 22px;&quot;&gt;)&lt;/span&gt;&lt;/font&gt;" style="text;html=1;align=center;verticalAlign=middle;whiteSpace=wrap;rounded=0;" parent="1" vertex="1">
          <mxGeometry x="164" y="700" width="60" height="30" as="geometry" />
        </mxCell>
        <mxCell id="SDP90H89KRwcFPpMvYyM-140" value="&lt;font face=&quot;Lucida Console&quot;&gt;&lt;span style=&quot;font-size: 22px;&quot;&gt;(&lt;/span&gt;&lt;/font&gt;" style="text;html=1;align=center;verticalAlign=middle;whiteSpace=wrap;rounded=0;" parent="1" vertex="1">
          <mxGeometry x="234" y="710" width="60" height="30" as="geometry" />
        </mxCell>
        <mxCell id="SDP90H89KRwcFPpMvYyM-141" value="&lt;font face=&quot;Lucida Console&quot;&gt;&lt;span style=&quot;font-size: 22px;&quot;&gt;;&lt;/span&gt;&lt;/font&gt;" style="text;html=1;align=center;verticalAlign=middle;whiteSpace=wrap;rounded=0;" parent="1" vertex="1">
          <mxGeometry x="314" y="710" width="60" height="30" as="geometry" />
        </mxCell>
        <mxCell id="SDP90H89KRwcFPpMvYyM-142" value="&lt;font style=&quot;font-size: 24px;&quot; face=&quot;Lucida Console&quot;&gt;,&lt;/font&gt;" style="text;html=1;align=center;verticalAlign=middle;whiteSpace=wrap;rounded=0;" parent="1" vertex="1">
          <mxGeometry x="344" y="650" width="60" height="30" as="geometry" />
        </mxCell>
        <mxCell id="SDP90H89KRwcFPpMvYyM-144" value="&lt;font style=&quot;font-size: 24px;&quot; face=&quot;Lucida Console&quot;&gt;+&lt;/font&gt;" style="text;html=1;align=center;verticalAlign=middle;whiteSpace=wrap;rounded=0;" parent="1" vertex="1">
          <mxGeometry x="404" y="600" width="60" height="30" as="geometry" />
        </mxCell>
        <mxCell id="SDP90H89KRwcFPpMvYyM-146" value="&lt;font style=&quot;font-size: 22px;&quot; face=&quot;Lucida Console&quot;&gt;0: A → lP|d N|‘ST|&amp;amp; Y|=I|/C|,|;|(|)|{|}|+|eof|del A|cr A&lt;/font&gt;" style="text;whiteSpace=wrap;html=1;" parent="1" vertex="1">
          <mxGeometry x="30" y="1320" width="780" height="40" as="geometry" />
        </mxCell>
        <mxCell id="SDP90H89KRwcFPpMvYyM-147" value="&lt;font style=&quot;font-size: 22px;&quot; face=&quot;Lucida Console&quot;&gt;2: N → d N|&amp;nbsp;&lt;/font&gt;&lt;font face=&quot;Lucida Console&quot;&gt;&lt;span style=&quot;font-size: 22px;&quot;&gt;λ&lt;/span&gt;&lt;/font&gt;" style="text;whiteSpace=wrap;html=1;" parent="1" vertex="1">
          <mxGeometry x="30" y="1400" width="780" height="40" as="geometry" />
        </mxCell>
        <mxCell id="SDP90H89KRwcFPpMvYyM-148" value="&lt;font style=&quot;font-size: 22px;&quot; face=&quot;Lucida Console&quot;&gt;3: ST → c&lt;sub&gt;1&lt;/sub&gt;ST| &#39;&lt;/font&gt;" style="text;whiteSpace=wrap;html=1;" parent="1" vertex="1">
          <mxGeometry x="30" y="1440" width="780" height="40" as="geometry" />
        </mxCell>
        <mxCell id="SDP90H89KRwcFPpMvYyM-149" value="&lt;font style=&quot;font-size: 22px;&quot; face=&quot;Lucida Console&quot;&gt;4: Y → &amp;amp;|=&lt;/font&gt;&lt;span style=&quot;color: rgba(0, 0, 0, 0); font-family: monospace; font-size: 0px; text-wrap: nowrap;&quot;&gt;%3CmxGraphModel%3E%3Croot%3E%3CmxCell%20id%3D%220%22%2F%3E%3CmxCell%20id%3D%221%22%20parent%3D%220%22%2F%3E%3CmxCell%20id%3D%222%22%20value%3D%22%26lt%3Bfont%20style%3D%26quot%3Bfont-size%3A%2022px%3B%26quot%3B%20face%3D%26quot%3BLucida%20Console%26quot%3B%26gt%3B2%3A%20ST%20%E2%86%92%20c%26lt%3Bsub%26gt%3B1%26lt%3B%2Fsub%26gt%3BST%7C%26amp%3Bnbsp%3B%26lt%3B%2Ffont%26gt%3B%26lt%3Bfont%20face%3D%26quot%3BLucida%20Console%26quot%3B%26gt%3B%26lt%3Bspan%20style%3D%26quot%3Bfont-size%3A%2022px%3B%26quot%3B%26gt%3B%CE%BB%26lt%3B%2Fspan%26gt%3B%26lt%3B%2Ffont%26gt%3B%22%20style%3D%22text%3BwhiteSpace%3Dwrap%3Bhtml%3D1%3B%22%20vertex%3D%221%22%20parent%3D%221%22%3E%3CmxGeometry%20x%3D%2210%22%20y%3D%22980%22%20width%3D%22780%22%20height%3D%2240%22%20as%3D%22geometry%22%2F%3E%3C%2FmxCell%3E%3C%2Froot%3E%3C%2FmxGraphModel%3E&lt;/span&gt;" style="text;whiteSpace=wrap;html=1;" parent="1" vertex="1">
          <mxGeometry x="30" y="1480" width="780" height="40" as="geometry" />
        </mxCell>
        <mxCell id="SDP90H89KRwcFPpMvYyM-151" value="&lt;font style=&quot;font-size: 22px;&quot; face=&quot;Lucida Console&quot;&gt;1: P → lP|d P|_P&lt;/font&gt;&lt;font style=&quot;font-size: 22px;&quot; face=&quot;Lucida Console&quot;&gt;|&amp;nbsp;&lt;/font&gt;&lt;font face=&quot;Lucida Console&quot;&gt;&lt;span style=&quot;font-size: 22px;&quot;&gt;λ&lt;/span&gt;&lt;/font&gt;" style="text;whiteSpace=wrap;html=1;" parent="1" vertex="1">
          <mxGeometry x="30" y="1360" width="780" height="40" as="geometry" />
        </mxCell>
        <mxCell id="SDP90H89KRwcFPpMvYyM-152" value="&lt;font style=&quot;font-size: 22px;&quot; face=&quot;Lucida Console&quot;&gt;6: C → *D&lt;/font&gt;&lt;span style=&quot;color: rgba(0, 0, 0, 0); font-family: monospace; font-size: 0px; text-wrap: nowrap;&quot;&gt;%3CmxGraphModel%3E%3Croot%3E%3CmxCell%20id%3D%220%22%2F%3E%3CmxCell%20id%3D%221%22%20parent%3D%220%22%2F%3E%3CmxCell%20id%3D%222%22%20value%3D%22%26lt%3Bfont%20style%3D%26quot%3Bfont-size%3A%2022px%3B%26quot%3B%20face%3D%26quot%3BLucida%20Console%26quot%3B%26gt%3B2%3A%20ST%20%E2%86%92%20c%26lt%3Bsub%26gt%3B1%26lt%3B%2Fsub%26gt%3BST%7C%26amp%3Bnbsp%3B%26lt%3B%2Ffont%26gt%3B%26lt%3Bfont%20face%3D%26quot%3BLucida%20Console%26quot%3B%26gt%3B%26lt%3Bspan%20style%3D%26quot%3Bfont-size%3A%2022px%3B%26quot%3B%26gt%3B%CE%BB%26lt%3B%2Fspan%26gt%3B%26lt%3B%2Ffont%26gt%3B%22%20style%3D%22text%3BwhiteSpace%3Dwrap%3Bhtml%3D1%3B%22%20vertex%3D%221%22%20parent%3D%221%22%3E%3CmxGeometry%20x%3D%2210%22%20y%3D%22980%22%20width%3D%22780%22%20height%3D%2240%22%20as%3D%22geometry%22%2F%3E%3C%2FmxCell%3E%3C%2Froot%3E%3C%2FmxGraphModel%&lt;/span&gt;" style="text;whiteSpace=wrap;html=1;" parent="1" vertex="1">
          <mxGeometry x="30" y="1560" width="780" height="40" as="geometry" />
        </mxCell>
        <mxCell id="SDP90H89KRwcFPpMvYyM-153" value="&lt;font style=&quot;font-size: 22px;&quot; face=&quot;Lucida Console&quot;&gt;7: D → c&lt;sub&gt;2&lt;/sub&gt;D|*E&lt;/font&gt;&lt;span style=&quot;color: rgba(0, 0, 0, 0); font-family: monospace; font-size: 0px; text-wrap: nowrap;&quot;&gt;%3CmxGraphModel%3E%3Croot%3E%3CmxCell%20id%3D%220%22%2F%3E%3CmxCell%20id%3D%221%22%20parent%3D%220%22%2F%3E%3CmxCell%20id%3D%222%22%20value%3D%22%26lt%3Bfont%20style%3D%26quot%3Bfont-size%3A%2022px%3B%26quot%3B%20face%3D%26quot%3BLucida%20Console%26quot%3B%26gt%3B2%3A%20ST%20%E2%86%92%20c%26lt%3Bsub%26gt%3B1%26lt%3B%2Fsub%26gt%3BST%7C%26amp%3Bnbsp%3B%26lt%3B%2Ffont%26gt%3B%26lt%3Bfont%20face%3D%26quot%3BLucida%20Console%26quot%3B%26gt%3B%26lt%3Bspan%20style%3D%26quot%3Bfont-size%3A%2022px%3B%26quot%3B%26gt%3B%CE%BB%26lt%3B%2Fspan%26gt%3B%26lt%3B%2Ffont%26gt%3B%22%20style%3D%22text%3BwhiteSpace%3Dwrap%3Bhtml%3D1%3B%22%20vertex%3D%221%22%20parent%3D%221%22%3E%3CmxGeometry%20x%3D%2210%22%20y%3D%22980%22%20width%3D%22780%22%20height%3D%2240%22%20as%3D%22geometry%22%2F%3E%3C%2FmxCell%3E%3C%2Froot%3E%3C%2FmxGraphModel%&lt;/span&gt;" style="text;whiteSpace=wrap;html=1;" parent="1" vertex="1">
          <mxGeometry x="30" y="1600" width="780" height="40" as="geometry" />
        </mxCell>
        <mxCell id="SDP90H89KRwcFPpMvYyM-154" value="&lt;font style=&quot;font-size: 22px;&quot; face=&quot;Lucida Console&quot;&gt;8: E → /A|c&lt;sub&gt;3&lt;/sub&gt;D|*E&lt;/font&gt;&lt;span style=&quot;color: rgba(0, 0, 0, 0); font-family: monospace; font-size: 0px; text-wrap: nowrap;&quot;&gt;%3CmxGraphModel%3E%3Croot%3E%3CmxCell%20id%3D%220%22%2F%3E%3CmxCell%20id%3D%221%22%20parent%3D%220%22%2F%3E%3CmxCell%20id%3D%222%22%20value%3D%22%26lt%3Bfont%20style%3D%26quot%3Bfont-size%3A%2022px%3B%26quot%3B%20face%3D%26quot%3BLucida%20Console%26quot%3B%26gt%3B2%3A%20ST%20%E2%86%92%20c%26lt%3Bsub%26gt%3B1%26lt%3B%2Fsub%26gt%3BST%7C%26amp%3Bnbsp%3B%26lt%3B%2Ffont%26gt%3B%26lt%3Bfont%20face%3D%26quot%3BLucida%20Console%26quot%3B%26gt%3B%26lt%3Bspan%20style%3D%26quot%3Bfont-size%3A%2022px%3B%26quot%3B%26gt%3B%CE%BB%26lt%3B%2Fspan%26gt%3B%26lt%3B%2Ffont%26gt%3B%22%20style%3D%22text%3BwhiteSpace%3Dwrap%3Bhtml%3D1%3B%22%20vertex%3D%221%22%20parent%3D%221%22%3E%3CmxGeometry%20x%3D%2210%22%20y%3D%22980%22%20width%3D%22780%22%20height%3D%2240%22%20as%3D%22geometry%22%2F%3E%3C%2FmxCell%3E%3C%2Froot%3E%3C%2FmxGraphModel%&lt;/span&gt;" style="text;whiteSpace=wrap;html=1;" parent="1" vertex="1">
          <mxGeometry x="30" y="1640" width="780" height="40" as="geometry" />
        </mxCell>
        <mxCell id="SDP90H89KRwcFPpMvYyM-156" value="&lt;font face=&quot;Lucida Console&quot;&gt;&lt;span style=&quot;font-size: 22px;&quot;&gt;l: letra&amp;nbsp; d: digito c&lt;sub&gt;1&lt;/sub&gt;:T-{&#39;} c&lt;sub&gt;2&lt;/sub&gt;:T-{*} c&lt;sub&gt;3&lt;/sub&gt;:T-{/,*}&lt;/span&gt;&lt;/font&gt;" style="text;html=1;align=center;verticalAlign=middle;whiteSpace=wrap;rounded=0;" parent="1" vertex="1">
          <mxGeometry x="29" y="1230" width="770" height="30" as="geometry" />
        </mxCell>
        <mxCell id="SDP90H89KRwcFPpMvYyM-157" value="&lt;font face=&quot;Lucida Console&quot;&gt;&lt;span style=&quot;font-size: 22px;&quot;&gt;cr: salto de linea&amp;nbsp;&lt;/span&gt;&lt;/font&gt;&lt;span style=&quot;font-family: &amp;quot;Lucida Console&amp;quot;; font-size: 22px;&quot;&gt;del: {esp, tab} eof: end of file&lt;/span&gt;" style="text;html=1;align=center;verticalAlign=middle;whiteSpace=wrap;rounded=0;" parent="1" vertex="1">
          <mxGeometry x="29" y="1270" width="770" height="30" as="geometry" />
        </mxCell>
        <mxCell id="SDP90H89KRwcFPpMvYyM-158" value="&lt;font face=&quot;Lucida Console&quot;&gt;&lt;span style=&quot;font-size: 22px;&quot;&gt;T: Cjto. de terminales&lt;/span&gt;&lt;/font&gt;" style="text;html=1;align=center;verticalAlign=middle;whiteSpace=wrap;rounded=0;" parent="1" vertex="1">
          <mxGeometry x="35" y="1190" width="770" height="30" as="geometry" />
        </mxCell>
        <mxCell id="dSIA0kGt6kJZXblX2X2D-1" value="A:&lt;div&gt;&lt;span style=&quot;white-space: pre;&quot;&gt;&#x9;&lt;/span&gt;CONCAT&lt;/div&gt;&lt;div&gt;&lt;span style=&quot;white-space: pre;&quot;&gt;&#x9;&lt;/span&gt;LEE&lt;/div&gt;" style="text;html=1;align=left;verticalAlign=middle;whiteSpace=wrap;rounded=0;fontSize=22;" parent="1" vertex="1">
          <mxGeometry x="29" y="1710" width="242" height="70" as="geometry" />
        </mxCell>
        <mxCell id="dSIA0kGt6kJZXblX2X2D-4" value="&lt;font style=&quot;font-size: 22px;&quot;&gt;B:&amp;nbsp;&lt;/font&gt;&lt;div&gt;&lt;font style=&quot;font-size: 22px;&quot;&gt;&lt;span style=&quot;white-space: pre;&quot;&gt;&#x9;&lt;/span&gt;num : = valor(d)&lt;br&gt;&lt;/font&gt;&lt;/div&gt;" style="text;html=1;align=left;verticalAlign=middle;whiteSpace=wrap;rounded=0;" parent="1" vertex="1">
          <mxGeometry x="271" y="1700" width="216" height="70" as="geometry" />
        </mxCell>
        <mxCell id="dSIA0kGt6kJZXblX2X2D-6" value="&lt;font style=&quot;font-size: 22px;&quot;&gt;C:&amp;nbsp;&lt;/font&gt;&lt;div&gt;&lt;font style=&quot;font-size: 22px;&quot;&gt;&lt;span style=&quot;white-space: pre;&quot;&gt;&#x9;&lt;/span&gt;num := num*10 + valor(d)&lt;br&gt;&lt;/font&gt;&lt;/div&gt;" style="text;html=1;align=left;verticalAlign=middle;whiteSpace=wrap;rounded=0;" parent="1" vertex="1">
          <mxGeometry x="20" y="1820" width="314" height="70" as="geometry" />
        </mxCell>
        <mxCell id="wfIF7-sP_PRWyb_NLZ6c-1" value="&lt;span style=&quot;font-size: 22px;&quot;&gt;&lt;font color=&quot;#0000ff&quot;&gt;A&lt;/font&gt;&lt;/span&gt;" style="text;html=1;align=center;verticalAlign=middle;whiteSpace=wrap;rounded=0;" parent="1" vertex="1">
          <mxGeometry x="314" y="145" width="60" height="30" as="geometry" />
        </mxCell>
        <mxCell id="wfIF7-sP_PRWyb_NLZ6c-2" value="&lt;span style=&quot;font-size: 22px;&quot;&gt;&lt;font color=&quot;#0000ff&quot;&gt;A&lt;/font&gt;&lt;/span&gt;" style="text;html=1;align=center;verticalAlign=middle;whiteSpace=wrap;rounded=0;" parent="1" vertex="1">
          <mxGeometry x="344" y="40" width="60" height="30" as="geometry" />
        </mxCell>
        <mxCell id="wfIF7-sP_PRWyb_NLZ6c-4" value="&lt;span style=&quot;font-size: 22px;&quot;&gt;&lt;font color=&quot;#0000ff&quot;&gt;B&lt;/font&gt;&lt;/span&gt;" style="text;html=1;align=center;verticalAlign=middle;whiteSpace=wrap;rounded=0;" parent="1" vertex="1">
          <mxGeometry x="374" y="200" width="60" height="30" as="geometry" />
        </mxCell>
        <mxCell id="wfIF7-sP_PRWyb_NLZ6c-5" value="&lt;span style=&quot;font-size: 22px;&quot;&gt;&lt;font color=&quot;#0000ff&quot;&gt;C&lt;/font&gt;&lt;/span&gt;" style="text;html=1;align=center;verticalAlign=middle;whiteSpace=wrap;rounded=0;" parent="1" vertex="1">
          <mxGeometry x="464" y="175" width="60" height="30" as="geometry" />
        </mxCell>
        <mxCell id="wfIF7-sP_PRWyb_NLZ6c-7" value="&lt;font color=&quot;#0000ff&quot;&gt;&lt;span style=&quot;font-size: 22px;&quot;&gt;G2&lt;/span&gt;&lt;/font&gt;" style="text;html=1;align=center;verticalAlign=middle;whiteSpace=wrap;rounded=0;" parent="1" vertex="1">
          <mxGeometry x="534" y="190" width="60" height="30" as="geometry" />
        </mxCell>
        <mxCell id="wfIF7-sP_PRWyb_NLZ6c-8" value="&lt;span style=&quot;font-size: 22px;&quot;&gt;&lt;font color=&quot;#0000ff&quot;&gt;L&lt;/font&gt;&lt;/span&gt;" style="text;html=1;align=center;verticalAlign=middle;whiteSpace=wrap;rounded=0;" parent="1" vertex="1">
          <mxGeometry x="211" y="110" width="60" height="30" as="geometry" />
        </mxCell>
        <mxCell id="wfIF7-sP_PRWyb_NLZ6c-9" value="&lt;span style=&quot;font-size: 22px;&quot;&gt;&lt;font color=&quot;#0000ff&quot;&gt;L&lt;/font&gt;&lt;/span&gt;" style="text;html=1;align=center;verticalAlign=middle;whiteSpace=wrap;rounded=0;" parent="1" vertex="1">
          <mxGeometry x="70" y="200" width="60" height="30" as="geometry" />
        </mxCell>
        <mxCell id="wfIF7-sP_PRWyb_NLZ6c-10" value="&lt;span style=&quot;font-size: 22px;&quot;&gt;&lt;font color=&quot;#0000ff&quot;&gt;A&lt;/font&gt;&lt;/span&gt;" style="text;html=1;align=center;verticalAlign=middle;whiteSpace=wrap;rounded=0;" parent="1" vertex="1">
          <mxGeometry x="524" y="260" width="60" height="30" as="geometry" />
        </mxCell>
        <mxCell id="wfIF7-sP_PRWyb_NLZ6c-15" value="&lt;span style=&quot;font-size: 22px;&quot;&gt;&lt;font color=&quot;#0000ff&quot;&gt;L&lt;/font&gt;&lt;/span&gt;" style="text;html=1;align=center;verticalAlign=middle;whiteSpace=wrap;rounded=0;" parent="1" vertex="1">
          <mxGeometry x="704" y="510" width="60" height="30" as="geometry" />
        </mxCell>
        <mxCell id="wfIF7-sP_PRWyb_NLZ6c-16" value="&lt;span style=&quot;font-size: 22px;&quot;&gt;&lt;font color=&quot;#0000ff&quot;&gt;L&lt;/font&gt;&lt;/span&gt;" style="text;html=1;align=center;verticalAlign=middle;whiteSpace=wrap;rounded=0;" parent="1" vertex="1">
          <mxGeometry x="524" y="560" width="60" height="30" as="geometry" />
        </mxCell>
        <mxCell id="wfIF7-sP_PRWyb_NLZ6c-18" value="&lt;font color=&quot;#0000ff&quot;&gt;&lt;span style=&quot;font-size: 22px;&quot;&gt;G1&lt;/span&gt;&lt;/font&gt;" style="text;html=1;align=center;verticalAlign=middle;whiteSpace=wrap;rounded=0;" parent="1" vertex="1">
          <mxGeometry x="484" y="90" width="60" height="30" as="geometry" />
        </mxCell>
        <mxCell id="wfIF7-sP_PRWyb_NLZ6c-19" value="&lt;font color=&quot;#0000ff&quot;&gt;&lt;span style=&quot;font-size: 22px;&quot;&gt;G3&lt;/span&gt;&lt;/font&gt;" style="text;html=1;align=center;verticalAlign=middle;whiteSpace=wrap;rounded=0;" parent="1" vertex="1">
          <mxGeometry x="584" y="260" width="60" height="30" as="geometry" />
        </mxCell>
        <mxCell id="wfIF7-sP_PRWyb_NLZ6c-20" value="&lt;font color=&quot;#0000ff&quot;&gt;&lt;span style=&quot;font-size: 22px;&quot;&gt;G4a&lt;/span&gt;&lt;/font&gt;" style="text;html=1;align=center;verticalAlign=middle;whiteSpace=wrap;rounded=0;" parent="1" vertex="1">
          <mxGeometry x="684" y="280" width="60" height="30" as="geometry" />
        </mxCell>
        <mxCell id="wfIF7-sP_PRWyb_NLZ6c-21" value="&lt;font color=&quot;#0000ff&quot;&gt;&lt;span style=&quot;font-size: 22px;&quot;&gt;G4b&lt;/span&gt;&lt;/font&gt;" style="text;html=1;align=center;verticalAlign=middle;whiteSpace=wrap;rounded=0;" parent="1" vertex="1">
          <mxGeometry x="644" y="365" width="60" height="30" as="geometry" />
        </mxCell>
        <mxCell id="wfIF7-sP_PRWyb_NLZ6c-22" value="&lt;font color=&quot;#0000ff&quot;&gt;&lt;span style=&quot;font-size: 22px;&quot;&gt;G5&lt;/span&gt;&lt;/font&gt;" style="text;html=1;align=center;verticalAlign=middle;whiteSpace=wrap;rounded=0;" parent="1" vertex="1">
          <mxGeometry x="534" y="390" width="60" height="30" as="geometry" />
        </mxCell>
        <mxCell id="wfIF7-sP_PRWyb_NLZ6c-23" value="&lt;font color=&quot;#0000ff&quot;&gt;&lt;span style=&quot;font-size: 22px;&quot;&gt;G5b&lt;/span&gt;&lt;/font&gt;" style="text;html=1;align=center;verticalAlign=middle;whiteSpace=wrap;rounded=0;" parent="1" vertex="1">
          <mxGeometry x="524" y="490" width="60" height="30" as="geometry" />
        </mxCell>
        <mxCell id="wfIF7-sP_PRWyb_NLZ6c-24" value="&lt;span style=&quot;font-size: 22px;&quot;&gt;&lt;font color=&quot;#0000ff&quot;&gt;L&lt;/font&gt;&lt;/span&gt;" style="text;html=1;align=center;verticalAlign=middle;whiteSpace=wrap;rounded=0;" parent="1" vertex="1">
          <mxGeometry x="684" y="600" width="60" height="30" as="geometry" />
        </mxCell>
        <mxCell id="wfIF7-sP_PRWyb_NLZ6c-25" value="&lt;span style=&quot;font-size: 22px;&quot;&gt;&lt;font color=&quot;#0000ff&quot;&gt;L&lt;/font&gt;&lt;/span&gt;" style="text;html=1;align=center;verticalAlign=middle;whiteSpace=wrap;rounded=0;" parent="1" vertex="1">
          <mxGeometry x="584" y="625" width="60" height="30" as="geometry" />
        </mxCell>
        <mxCell id="wfIF7-sP_PRWyb_NLZ6c-26" value="&lt;span style=&quot;font-size: 22px;&quot;&gt;&lt;font color=&quot;#0000ff&quot;&gt;L&lt;/font&gt;&lt;/span&gt;" style="text;html=1;align=center;verticalAlign=middle;whiteSpace=wrap;rounded=0;" parent="1" vertex="1">
          <mxGeometry x="764" y="615" width="60" height="30" as="geometry" />
        </mxCell>
        <mxCell id="wfIF7-sP_PRWyb_NLZ6c-27" value="&lt;font color=&quot;#0000ff&quot;&gt;&lt;span style=&quot;font-size: 22px;&quot;&gt;G6&lt;/span&gt;&lt;/font&gt;" style="text;html=1;align=center;verticalAlign=middle;whiteSpace=wrap;rounded=0;" parent="1" vertex="1">
          <mxGeometry x="454" y="625" width="60" height="30" as="geometry" />
        </mxCell>
        <mxCell id="wfIF7-sP_PRWyb_NLZ6c-28" value="&lt;font color=&quot;#0000ff&quot;&gt;&lt;span style=&quot;font-size: 22px;&quot;&gt;G11&lt;/span&gt;&lt;/font&gt;" style="text;html=1;align=center;verticalAlign=middle;whiteSpace=wrap;rounded=0;" parent="1" vertex="1">
          <mxGeometry x="130" y="610" width="60" height="30" as="geometry" />
        </mxCell>
        <mxCell id="wfIF7-sP_PRWyb_NLZ6c-29" value="&lt;font color=&quot;#0000ff&quot;&gt;&lt;span style=&quot;font-size: 22px;&quot;&gt;G10&lt;/span&gt;&lt;/font&gt;" style="text;html=1;align=center;verticalAlign=middle;whiteSpace=wrap;rounded=0;" parent="1" vertex="1">
          <mxGeometry x="164" y="660" width="60" height="30" as="geometry" />
        </mxCell>
        <mxCell id="wfIF7-sP_PRWyb_NLZ6c-30" value="&lt;font color=&quot;#0000ff&quot;&gt;&lt;span style=&quot;font-size: 22px;&quot;&gt;G9&lt;/span&gt;&lt;/font&gt;" style="text;html=1;align=center;verticalAlign=middle;whiteSpace=wrap;rounded=0;" parent="1" vertex="1">
          <mxGeometry x="274" y="680" width="60" height="30" as="geometry" />
        </mxCell>
        <mxCell id="wfIF7-sP_PRWyb_NLZ6c-31" value="&lt;font color=&quot;#0000ff&quot;&gt;&lt;span style=&quot;font-size: 22px;&quot;&gt;G8&lt;/span&gt;&lt;/font&gt;" style="text;html=1;align=center;verticalAlign=middle;whiteSpace=wrap;rounded=0;" parent="1" vertex="1">
          <mxGeometry x="349" y="685" width="60" height="30" as="geometry" />
        </mxCell>
        <mxCell id="wfIF7-sP_PRWyb_NLZ6c-32" value="&lt;font color=&quot;#0000ff&quot;&gt;&lt;span style=&quot;font-size: 22px;&quot;&gt;G7&lt;/span&gt;&lt;/font&gt;" style="text;html=1;align=center;verticalAlign=middle;whiteSpace=wrap;rounded=0;" parent="1" vertex="1">
          <mxGeometry x="404" y="670" width="60" height="30" as="geometry" />
        </mxCell>
        <mxCell id="wfIF7-sP_PRWyb_NLZ6c-33" value="&lt;font color=&quot;#0000ff&quot;&gt;&lt;span style=&quot;font-size: 22px;&quot;&gt;G12&lt;/span&gt;&lt;/font&gt;" style="text;html=1;align=center;verticalAlign=middle;whiteSpace=wrap;rounded=0;" parent="1" vertex="1">
          <mxGeometry x="94" y="580" width="60" height="30" as="geometry" />
        </mxCell>
        <mxCell id="-FwbKMHpy__Np904BED7-1" value="&lt;font style=&quot;font-size: 22px;&quot; face=&quot;Lucida Console&quot;&gt;5: Y → =|&lt;/font&gt;&lt;span style=&quot;font-family: &amp;quot;Lucida Console&amp;quot;; font-size: 22px;&quot;&gt;λ&lt;/span&gt;&lt;span style=&quot;color: rgba(0, 0, 0, 0); font-family: monospace; font-size: 0px; text-wrap: nowrap;&quot;&gt;%3CmxGraphModel%3E%3Croot%3E%3CmxCell%20id%3D%220%22%2F%3E%3CmxCell%20id%3D%221%22%20parent%3D%220%22%2F%3E%3CmxCell%20id%3D%222%22%20value%3D%22%26lt%3Bfont%20style%3D%26quot%3Bfont-size%3A%2022px%3B%26quot%3B%20face%3D%26quot%3BLucida%20Console%26quot%3B%26gt%3B2%3A%20ST%20%E2%86%92%20c%26lt%3Bsub%26gt%3B1%26lt%3B%2Fsub%26gt%3BST%7C%26amp%3Bnbsp%3B%26lt%3B%2Ffont%26gt%3B%26lt%3Bfont%20face%3D%26quot%3BLucida%20Console%26quot%3B%26gt%3B%26lt%3Bspan%20style%3D%26quot%3Bfont-size%3A%2022px%3B%26quot%3B%26gt%3B%CE%BB%26lt%3B%2Fspan%26gt%3B%26lt%3B%2Ffont%26gt%3B%22%20style%3D%22text%3BwhiteSpace%3Dwrap%3Bhtml%3D1%3B%22%20vertex%3D%221%22%20parent%3D%221%22%3E%3CmxGeometry%20x%3D%2210%22%20y%3D%22980%22%20width%3D%22780%22%20height%3D%2240%22%20as%3D%22geometry%22%2F%3E%3C%2FmxCell%3E%3C%2Froot%3E%3C%2FmxGraphModel%3&lt;/span&gt;" style="text;whiteSpace=wrap;html=1;" parent="1" vertex="1">
          <mxGeometry x="29" y="1520" width="780" height="40" as="geometry" />
        </mxCell>
      </root>
    </mxGraphModel>
  </diagram>
</mxfile>
